<?xml version="1.0" encoding="UTF-8" standalone="no"?>
<svg width="201px" height="217px" viewBox="0 0 201 217" version="1.1" xmlns="http://www.w3.org/2000/svg" xmlns:xlink="http://www.w3.org/1999/xlink" xmlns:sketch="http://www.bohemiancoding.com/sketch/ns">
    <title>Ohio</title>
    <description>Created with Sketch (http://www.bohemiancoding.com/sketch)</description>
    <defs></defs>
    <g id="Page-1" stroke="none" stroke-width="1" fill="none" fill-rule="evenodd" sketch:type="MSPage">
        <path d="M200.56,80.928 L193.648,84.672 L196.816,90.72 L195.664,97.344 L196.816,101.088 L191.056,115.488 L190.48,124.704 L188.176,124.704 L188.752,127.872 L185.584,133.92 L187.024,137.088 L185.584,143.136 L169.456,157.248 L162.832,160.416 L160.24,156.672 L157.936,156.672 L153.616,160.416 L152.464,164.736 L147.856,164.736 L144.4,170.784 L144.4,175.104 L141.232,175.968 L143.536,178.848 L144.4,184.608 L141.232,184.032 L138.064,188.928 L135.76,182.016 L133.168,180.288 L130.576,181.44 L123.376,194.4 L125.104,204.768 L119.632,206.208 L117.616,214.848 L104.944,216.576 L100.336,209.664 L94.288,206.208 L90.544,196.704 L84.496,198.72 L78.736,204.768 L71.536,205.344 L68.944,201.888 L61.456,198.72 L56.56,200.448 L55.408,203.04 L52.24,203.04 L45.04,194.976 L40.144,193.824 L34.96,194.4 L28.912,191.232 L24.592,179.424 L17.68,173.952 L9.616,175.392 L5.296,171.072 L0.4,173.952 L5.584,17.28 L66.064,16.704 L83.056,23.328 L87.376,28.224 L91.984,28.512 L93.712,25.344 L100.624,30.24 L84.496,32.832 L90.544,35.136 L96.304,32.544 L104.656,35.136 L101.2,31.392 L107.248,36.288 L111.568,37.152 L130.576,30.24 L143.824,30.816 L161.104,16.704 L198.544,0.576 L198.544,0.576 L200.56,80.928 L200.56,80.928 Z M200.56,80.928" id="i" fill="#5472d2" sketch:type="MSShapeGroup"></path>
    </g>
</svg>